<?xml version="1.0" encoding="utf-8"?>
<!-- Generator: Adobe Illustrator 21.0.0, SVG Export Plug-In . SVG Version: 6.00 Build 0)  -->
<svg version="1.1" id="Layer_1" xmlns="http://www.w3.org/2000/svg" xmlns:xlink="http://www.w3.org/1999/xlink" x="0px" y="0px"
	 viewBox="0 0 720 720" style="enable-background:new 0 0 720 720;" xml:space="preserve">
<style type="text/css">
	.st0{fill:#FCE900;}
	.st1{fill:#DFF2F1;}
	.st2{fill:#EC3726;}
	.st3{fill:#EA2047;}
	.st4{fill:#7A2717;}
	.st5{fill:#FFFFFF;}
	.st6{fill:#EB565F;}
	.st7{fill:#731313;}
</style>
<path class="st0" d="M106,645.5c-1.9-2.1-3.7-4.1-5.5-6c-3.5-3.7-7.1-7.3-10.4-11.1c-2.3-2.7-4.2-5.7-6.2-8.5
	c-0.4-0.5-0.6-1.2-1.1-2.2c5.4,1,10,2.5,13.2,6.8c4.2,5.7,8.3,11.4,12.5,17c0.6,0.8,1.1,1.7,2.3,1.7c0.5-0.9-0.1-1.4-0.5-2
	c-5.8-6.9-11.3-14.1-15.7-22c-0.1-0.2-0.2-0.4-0.3-0.5c-0.7-1.5-0.7-2.6,0.1-3.3c1-1,2.3-0.8,3.3-0.2c5,2.8,10.2,5.3,14.8,8.5
	c9.3,6.4,18.4,13.2,27.6,19.9c0.6,0.5,1.2,0.9,1.8,1.3c0.8-0.4,0.7-1,0.3-1.4c-1.6-1.3-3.1-2.8-4.9-3.7c-6.4-3.1-9.7-8.3-10.7-15
	c-2.3-16.1,0.1-31.5,7.5-46c13.8-26.9,25.8-54.5,35.6-83.1c7.4-21.6,13.4-43.6,18.1-66c0.5-2.3,0.9-4.7,1.5-7.3
	c6.5,5.6,12.7,11.1,19.1,16.6c0.6-1,0.5-1.5-0.1-2.1c-0.5-0.5-1.1-0.9-1.6-1.3c-13.2-10.7-24.9-22.9-34.7-36.8
	c-2.3-3.2-4.3-6.6-6.4-10c-0.4-0.6-0.6-1.2-0.9-1.8c0.8-0.9,1.4-0.4,2-0.2c3.3,1.2,6.8,2,10.3,2.2c8.6,0.5,15.9-2.3,22.1-8.3
	c7.5-7.2,11.5-16.1,12.6-26.3c1.4-12.3-1.4-23.5-9-33.4c-4.6-6-10.4-10-17.8-11.6c-4.9-1.1-9.8-0.8-14.6,0.5
	c-0.8,0.2-1.6,0.4-2.7,0.7c0.3-1.3,0.5-2.4,0.7-3.5c1.7-7,3.4-13.9,5.1-20.9c0.4-1.8,0.8-3.7-0.3-5.7c-0.2,0.5-0.4,0.7-0.4,1
	c-1.4,8.4-4,16.5-6.3,24.7c-2.2,8-5.3,15.7-8.5,23.4c-2.4,5.7-4.3,11.6-5,17.8c-0.6,4.6-0.5,9.1,0.4,13.7c0.1,0.6,0.2,1.2,0.3,2
	c-0.5,0.3-1,0.6-1.5,0.8c-5.1,2.4-10.4,4.2-16.2,4.5c-6,0.3-11.6-0.8-16.3-4.7c-2-1.6-3.6-3.8-5.4-5.6c-0.9-1-1-2-0.6-3.3
	c2.1-6.1,3.9-12.4,6.1-18.5c5.8-15.9,13.2-31.1,21-46.1c1.8-3.4,4.5-5.6,7.9-7c4.9-2,9.8-4,14.7-5.8c12.4-4.5,25.1-7.9,38.1-10.1
	c0.5-0.1,1-0.1,1.5-0.2c0.2,0,0.4,0.1,0.7,0.2c-0.5,1.6-0.9,3.1-1.4,4.6c-2.1,7.1-0.8,13.8,2.9,20.1c3.6,6.1,9.3,9.3,16.1,10.6
	c9.8,1.9,17.9-2.5,23.4-10.8c5.2-7.9,5-16,1.1-24.3c-0.9-1.9-1.8-3.8-2.8-5.8c1.2-0.1,2.1-0.3,3-0.4c14.1-1.1,28.3-1.3,42.5-0.8
	c7.5,0.2,14.9,0.7,22.4,1.1c7.1,0.4,14.2,1.1,21.3,1.5c4.1,0.2,8.2,0.1,12.3,0.1c4.6-0.1,9.1-0.4,13.7-0.4c5.4,0,10.5-1,15.4-3
	c14.5-5.9,27.6-14.1,39.5-24.2c3.7-3.2,7.8-5,12.7-5.7c11.3-1.7,22.5-3.7,33.8-5.6c12.7-2.2,25.4-4.4,38.1-6.5
	c0.5-0.1,1.1-0.1,1.7-0.2c1.4-0.3,2.4,0.1,3.5,0.9c6.2,4.9,12.5,9.6,18.6,14.6c15.8,12.7,30.7,26.3,44.9,40.8
	c12.6,12.9,24.7,26.3,35.8,40.5c0.5,0.7,1.1,1.3,1.6,2s0.8,1.6,1.3,2.5c-1.1,0.7-2.8,1.6-4.8,2.6c-4.9,2.5-13.9,6.6-37.6,10.4
	c-18.1,2.9-22.9,2.1-26.6,1.1c-5.9-1.7-9.9-4.4-12.3-6.1c-17.9-12.4-34.1-25.9-39.5-30.4c-13-10.6-25.6-21.6-38-32.9
	c-0.9-0.9-1.8-1.8-2.7-2.6c-0.8-0.8-1.8-1.4-3.2-1.3c0.2,1.1,0.7,1.9,1.4,2.5c0.4,0.4,0.9,0.8,1.3,1c4.4,2.8,5.7,6.9,5.2,11.9
	c-1.2,12-2.6,24-3.5,36c-1,12.7-0.9,25.5-0.1,38.2c0.1,2.2,0.4,4.3,0.7,6.5c0.2,2.1,0.3,4.2-0.5,6.5c-0.8-1.2-1.5-2.1-2.2-3.1
	c-5.4-7.5-12.2-13.1-21.3-15.5c-12.5-3.2-23.5,0-32.6,9c-7.3,7.2-11.1,16.2-12.3,26.3c-1.2,9.7,0.9,18.9,4.9,27.7
	c0.8,1.8,1.7,3.5,2.7,5.3c3.3,6,8.5,9.3,15.1,10.3c5.4,0.9,10.7,0.4,15.9-1c0.6-0.2,1.2-0.3,1.9-0.5c0,1.3-0.7,2-1.5,2.6
	c-8.4,7.3-17.3,14.1-27.3,19.2c-4.6,2.3-9.3,4.4-13.9,6.6c-1.3,0.6-2.3,1.4-2.6,3.1c0.4-0.1,0.7-0.1,1-0.2c11.1-4.6,21.8-10,31.5-17
	c5.3-3.8,10.2-8,14.6-12.8c1.3-1.4,2.7-2.9,4.1-4.2c0.3-0.3,1-0.6,1.2-0.5c0.4,0.2,0.8,0.8,0.9,1.3c0.8,4.2,1.6,8.4,2.4,12.6
	c3.1,15.8,7.6,31.3,12.4,46.7c6,19.5,12.9,38.7,21.1,57.4c5.5,12.5,10.8,25,17,37c1.7,3.2,3.6,6.4,4.9,9.8
	c4.8,12.3,6.2,25.1,4.4,38.2c-0.3,2.2-0.6,4.3-1.1,6.5c-0.9,3.5-2.9,6.4-6.1,8.2c-1.3,0.7-2.5,1.6-2.6,3.6c0.8-0.6,1.5-1,2-1.5
	c8.5-6.2,16.9-12.5,25.5-18.5c4.9-3.4,10.2-6.3,15.3-9.3c0.5-0.3,1.1-0.6,1.7-0.8c1.2-0.4,2.3-0.3,3.1,0.6c0.8,0.9,0.7,2,0.2,3
	c-0.3,0.6-0.6,1.3-1,1.9c-4.5,7.2-9.4,14-14.9,20.5c-0.5,0.6-0.8,1.3-1.2,2.1c1.4,0.3,2-0.4,2.5-1.1c3.8-5.2,7.8-10.4,11.5-15.7
	c2.5-3.6,5.6-6,9.8-7.2c1.3-0.4,2.7-0.8,4.5-1.3c-0.6,1.1-0.8,1.8-1.2,2.4c-2.9,5-6.6,9.3-10.6,13.4c-3.3,3.5-6.7,7-10.1,10.5
	c-0.4,0.4-0.7,0.8-1.1,1.3c0.9,0.7,1.5,0.2,2-0.3c1.4-1.4,2.7-2.8,4.1-4.3c4.5-4.8,8.9-9.6,13.5-14.3c1.5-1.5,3.4-2.3,5.5-2.5
	c2.9-0.2,4.3,2.2,3,4.8c-2.2,4.3-4.8,8.3-7.9,12c-4.4,5.1-8.9,10.2-13.6,15.1c-7.5,7.8-15.1,15.4-22.9,22.9
	c-8.5,8.2-17.7,15.8-27.7,22.1c-4.6,2.9-9.5,5.3-14.8,6.6c-2.6,0.7-5.3,1-8,0.5c-5-0.8-8.2-3.8-10.3-8.2c-0.7-1.5-1.1-3.2-1.7-4.8
	c-0.3-0.8-0.5-1.6-0.8-2.8c-1.5,3-3.8,2.5-6.1,2.1c-11.1-1.9-22.2-4-33.4-5c-0.7-0.1-1.4-0.2-2-0.3c-0.7-0.9-0.3-1.7,0.3-2.3
	c12.6-15.3,22-32.5,28.7-51.2c3.9-11,6.7-22.4,9.6-33.7c1.8-7.1,3.5-14.2,5.3-21.3c0.2-0.8,0.7-1.8-0.2-2.7
	c-1.1,0.2-1.4,1.1-1.6,2.1c-4.4,17.8-8.5,35.7-14.2,53.2c-5.3,16.2-13.4,31-23.2,44.9c-5.2,7.3-10.7,14.3-17.2,20.5
	c-1.6,1.5-2.5,3.2-2.1,5.5c0.1,0.4,0,0.8,0,1.3c-0.1,1.3-0.8,1.9-2.1,1.8c-0.8-0.1-1.5-0.3-2.3-0.5c-1.1-0.3-2.2-0.6-3.3-0.8
	c-2.3-0.3-4.3,0.4-5.9,2.2c-1.9,2-2.5,2-4.5,0.1c-0.9-0.9-1.8-1.8-2.8-2.5c-2-1.5-4-1.5-6,0.1c-0.5,0.4-0.9,0.8-1.4,1.2
	c-1.2,0.9-1.9,0.8-2.8-0.4c-0.7-0.9-1.2-1.9-1.8-2.8c-1.7-2.4-2.7-2.5-5.1-0.9c-1.6,1.1-2.2,1-3.4-0.5c-0.6-0.7-1.1-1.5-1.6-2.2
	c-0.7-1-1.6-1.6-2.8-1.4c-0.4,0-0.9,0.1-1.3,0c-1.8-0.2-2.5-1-2.5-2.8c0-0.5,0-1,0.2-1.5c1-3.5,0.5-6.8-0.6-10.2
	c-2.4-7-4.1-14.2-5.3-21.5c-1.2-7.2-1.9-14.5-2-21.9c-0.1-3.5-0.2-6.9-0.3-10.3c0-0.9,0.3-1.8,0.4-2.7c0.1-0.6,0.3-1.2,0.3-1.8
	c1.2-21.5,5.7-42.4,13.4-62.5c0.8-2,0.8-2,0.4-3.4c-1.2-0.3-1.4,0.8-1.6,1.5c-1.5,4-3,7.9-4.3,11.9c-3.1,9.4-5.5,18.9-7.1,28.7
	c-1.3,7.9-2.3,15.9-2.3,23.9c0,3-0.3,5.9-0.4,8.9c-0.4,14.5,1.5,28.8,5.4,42.8c0.2,0.8,0.5,1.6,0.5,2.5c0.2,1.7-0.2,2.4-2,2.5
	c-2.2,0.2-4.5,0.1-6.7,0c-10.1-0.2-20.3-0.2-30.4,0.4c-1.3,0.1-2.7,0.3-4,0.3c-2.1,0-2.7-0.7-2.3-2.7c0.6-2.9,1.3-5.8,2-8.6
	c3.4-15.5,4.5-31.2,3.5-47.1c-1.3-20.3-5.9-39.8-12.7-58.9c-0.5-1.3-1-2.6-1.5-3.9c-0.1-0.3-0.6-0.5-1.3-0.7c0.1,0.7,0,1.5,0.3,2.1
	c4.1,10.1,7,20.7,9.4,31.3c3.2,14.3,4.9,28.7,4.7,43.4c-0.2,15.5-2.4,30.7-6.9,45.6c-0.8,2.7-1.7,5.4-1.6,8.3c0,1.6,0.3,3.2,0.6,4.8
	c0.3,1.7-0.1,2.3-1.9,2.5c-0.5,0-1,0-1.5,0c-1.3-0.1-2.3,0.4-3,1.6c-0.2,0.4-0.5,0.7-0.7,1c-1.7,2.2-3.2,2.5-5.7,1.4
	c-2.3-1.1-2.5-1-3.8,1.2c-0.5,0.8-1,1.7-1.6,2.5c-1.2,1.5-2.3,1.6-3.8,0.4c-0.4-0.3-0.7-0.7-1.1-1c-2-1.6-3.7-1.6-5.7,0.1
	c-0.8,0.7-1.4,1.5-2.2,2.2c-2,1.7-4.2,1.8-5.8-0.2c-2-2.6-4.3-2.5-7-1.5c-1.1,0.4-2.2,0.6-3.3,0.8c-1.8,0.2-2.3-0.3-2.4-2.1
	c0-0.1,0-0.3,0-0.4c0.4-2.4-0.6-4.2-2.3-5.8c-2.4-2.3-4.8-4.6-6.9-7.2c-3.5-4.3-6.7-8.7-10-13.1c-13.6-18.8-22.9-39.5-28.5-62
	c-2.9-11.4-5.9-22.8-8.8-34.1c-0.2-0.7-0.4-1.4-0.5-2.1c-0.2-1.4-1-2.3-2.4-2.6c0,0.4-0.1,0.8,0,1.1c4,15.5,7.9,31,12.2,46.3
	c4.1,14.6,9.8,28.7,17.9,41.6c4.1,6.6,8.8,12.8,13.2,19.1c1.4,1.9,2.8,3.8,4.3,5.9c-0.9,0.3-1.6,0.6-2.2,0.7
	c-7.7,2.1-15.5,4.2-23.2,6.3c-1.4,0.4-2.8,0.5-3.9-1c-0.4,1.2-0.7,2.3-1.1,3.3c-0.8,2.6-1.9,5-3.7,7c-3.7,4-8.4,5-13.5,4.1
	c-5.8-1-11-3.3-16-6.4c-9.1-5.7-17.5-12.4-25.4-19.7c-13-12.1-25.6-24.6-37.3-38c-2.4-2.7-4.5-5.6-6.6-8.5c-1.4-2-2.6-4.2-3.8-6.3
	c-0.6-1.1-1.2-2.3-0.3-3.5c1-1.2,2.3-1.6,3.8-1.4c2.1,0.2,3.7,1.3,5.1,2.8c3.7,3.9,7.3,7.8,11,11.7c1.6,1.7,2.8,4.4,5.8,6.1
	C104.5,645,105.4,645.4,106,645.5z M362.5,298.8c0,4.9,1.3,9.5,4,13.6c10.4,15.3,28.8,12.5,36.9,3.3c6.5-7.4,8.5-16.1,5-25.4
	c-2.9-7.7-8.6-13-16.9-14.8c-4.1-0.9-8.3-0.3-12.3,0.9c-3.5,1-6.5,2.5-9.2,5.1C365.1,286.3,362.6,292,362.5,298.8z M234.5,338.5
	c-0.1,0.2-0.1,0.3-0.1,0.5c5.6,3.6,11.9,5.5,18.5,6.5c0.1,0.5,0.2,1,0.3,1.4c1.3,7.1,2.4,14.1,3.8,21.2c0.8,3.9,2,7.8,2.9,11.7
	c2,9.7,5.6,18.9,10.3,27.6c2.1,3.8,4.8,7.1,8.3,9.8c4.8,3.6,10,4.2,15.5,2c3-1.2,5.6-2.9,8-5c4.5-4,8.4-8.5,11.9-13.4
	c7.1-10,12.5-20.9,17.9-31.8c1.2-2.4,2.1-4.9,3.1-7.4c1.4-3.2,3.2-4.4,6.7-4.4c1,0,2.1,0.2,3.2,0.1c1.6-0.1,3.3-0.2,5-1.1
	c-2-1.3-3.9-1.2-5.8-0.8c-6.5,1.1-12.6,0.1-18.6-2.5c-7.6-3.3-14.3-8-20.5-13.2c-2.9-2.4-5.5-5-8.3-7.6c-1.6-1.5-2.4-1.6-4.4-0.8
	c-0.9,0.4-1.8,0.9-2.6,1.3c-9.7,5-19.9,8.7-30.7,10.2c-2.9,0.4-5.7,0.8-8.6,0.3c-4-0.6-7.7-2.1-11.6-3.3
	C237.3,339.3,235.9,338.9,234.5,338.5z M296.8,302.9c-1.5,0.2-2.9,0.3-4.3,0.7c-2.2,0.6-3.1,2.3-2.8,4.5c0.1,0.8,0.4,1.6,0.7,2.4
	c1.1,2.6,3.1,4.5,5.4,6.1c0.4,0.3,1.1,0.5,1.5,0.4c3.2-1.1,6.3-2.6,8.3-5.4c2.1-2.9,1.5-5.2-1.7-6.9
	C301.7,303.6,299.3,303,296.8,302.9z"/>
<path class="st1" d="M78,305.3c2.6-5.3,5.8-8.9,15.6-18.6c6.9-6.9,10.4-10.3,13.4-13c11.6-10.4,27.6-24.7,50.5-38.2
	c8.7-5.1,26.6-15.6,49.7-22.7c9.3-2.8,35.3-10.1,87.7-6.3c29,2.1,70.9,7.9,120.1,24.8c-2.2,2-5.5,4.8-9.7,8
	c-7.7,5.7-23.7,17.4-44.7,21.2c-4.9,0.9-11.4,0.8-24.2,0.6c-23.8-0.3-41.5-1.6-46.2-1.9c-40-2.7-74.5,3.4-81.6,4.8
	c-12.5,2.3-35.4,6.7-61.8,18.4c-9.1,4-20,9.5-32.4,15.8c-13.4,6.8-24.4,12.6-32,16.6c-2.9,3-6.2,6-7.6,5.2
	C72.9,318.9,75.2,311.1,78,305.3z M132.5,148.5c0.3-17.1,7.1-34.4,20.6-49c13.3-14.4,29.8-22.8,49.1-26.1c7.1-1.2,14.3-2,21.4-1.7
	c28.3,1.6,50.9,13.7,67.1,37.1c6.1,8.8,10.2,18.5,12.2,29c0.1,0.4,0.1,0.8,0.2,1.3c0.2,2.2-0.4,3-2.5,3.4s-4.3,0.8-6.4,1.1
	c-11.6,1.9-23.1,4.3-34.5,7.1c-4.1,1-4.4,0.8-5.8-3.2c-3.2-9.9-8.9-18-17.7-23.8c-16.2-10.6-38-7.5-50.8,5.2
	c-9.1,9-13.1,20-12.4,32.7c0.1,2.9,0.9,5.8,1.4,8.7c0.1,0.6,0.4,1.2,0.5,1.8c0.5,2.3,0,3.2-2.2,4.1c-4.1,1.6-8.2,3-12.3,4.6
	c-4.6,1.8-9.2,3.6-13.8,5.4c-3.8,1.5-4.9,1.1-6.6-2.6C135,173.5,132.5,162.7,132.5,148.5z"/>
<path class="st2" d="M377.6,384.5c0.2-8.7,2-17,7.1-24.2c5.9-8.4,13.9-13.8,24.2-15.2c9-1.3,17.1,1.4,24.4,6.9
	c4.4,3.4,7.9,7.6,10.2,12.7c0.8,1.7,1,3.5,0.7,5.4c-2.7,15.3-8.6,29.3-18,41.7c-4.6,6.1-10.8,9.3-18.4,9.9
	c-5.9,0.5-11.3-0.7-16.4-3.8c-2.7-1.7-4.8-3.9-6.5-6.6c-3.7-5.9-5.7-12.4-6.6-19.2C378,389.5,377.9,387,377.6,384.5z M154.3,352.9
	c0.1-5.7,1.1-11.2,3.1-16.5c2.1-5.8,4.4-11.5,6.8-17.3c1.9-4.5,5.1-7.6,10.1-8.2c2.4-0.3,4.8-0.2,7.1,0.1
	c9.9,1.4,17.1,6.8,22.3,15.1c8.5,13.7,8.5,32.9,0,46.4c-3.2,5.1-7.4,9.2-12.8,12c-7.8,4.1-15.6,3.7-23.7,0.9
	c-3.7-1.2-5.5-3.5-6.7-6.9c-1.3-3.7-2.7-7.3-3.9-10.9C155.4,364,154.3,356.7,154.3,352.9z"/>
<path class="st3" d="M306.3,12c15.1,0.1,30.1,1.1,45.1,2.6c16.9,1.7,33.6,4.4,50.3,7.5c2.7,0.5,5.4,1,8.1,1.3
	c3.4,0.4,5.6,2.3,6.8,5.3c1.7,4.3,3.4,8.7,4.8,13.1c3.6,11.1,5.9,22.5,8.4,33.8c3.7,16.9,6.9,34,9.7,51c0.2,1.3,0.3,2.6,0.5,4
	c0.1,1.1-0.5,1.7-1.6,1.8c-0.6,0.1-1.1,0.1-1.7,0.1c-11.7-0.9-23.4-1-35.1-0.5c-11.3,0.5-22.6,1.4-33.9,2.3
	c-10.3,0.9-20.6,1.9-30.9,3.1c-8.2,0.9-16.3,2.1-24.5,3.1c-1.4,0.2-2.8,0.4-4.2,0.4c-2.1,0-3.1-0.7-3.8-2.7
	c-0.4-1.1-0.6-2.3-0.9-3.5c-3.2-14-9.8-26.2-19.5-36.7c-14.1-15.2-31.6-24-52.1-26.8c-14.8-2-29.4-1-43.6,3.9
	c-13.1,4.5-24.7,11.7-34.6,21.4c-11.1,10.9-18.1,24.2-21.1,39.5c-3.2,16.5-1.3,32.4,5.8,47.6c0.4,0.8,0.7,1.5,1,2.3
	c0.5,1.6,0.2,2.5-1.2,3.4c-0.5,0.4-1.1,0.6-1.7,0.9c-8.7,3.9-17.4,7.7-26.1,11.5c-0.3,0.1-0.5,0.3-0.8,0.3c-1.5,0.5-2.2,0.2-2.8-1.3
	c-0.2-0.5-0.3-1.1-0.5-1.6c-4.1-15.6-7.5-31.4-10.2-47.3c-1.1-6.8-2-13.6-2.8-20.5c-0.4-4-0.5-8-0.4-12c0.2-6.3,2.9-11.9,6.4-17
	c6.1-8.9,12.9-17.3,20.4-25.1c21-21.7,46.2-36.7,74.3-47.2c17.7-6.6,36-11.2,54.7-14c13.5-2,27.1-3.4,40.8-3.8
	C295.2,12.3,300.7,12.1,306.3,12z M413.4,133.3c12,0.1,24,0.9,35.9,1.9c12.6,1,25.3,2.1,37.9,3.1c0.8,0.1,1.7,0.2,2.5,0.3
	c2.6,0.4,3.7,1.4,4.1,4.1c0.5,3.4,0.9,6.7,1.3,10.1c1.1,10.4,2.2,20.7,3.3,31.1c0.9,8.8,1.8,17.7,2.6,26.5c0.1,0.8,0.1,1.6,0.1,2.3
	c0,2.4-0.9,3.6-3.3,4.2c-1.7,0.4-3.5,0.6-5.2,0.9c-16.4,2.8-32.8,5.5-49.2,8.2c-7.6,1.3-15.1,2.5-22.7,3.8c-1.7,0.3-3.3,0.1-5-0.4
	c-12.4-3.8-24.7-7.8-37.2-11.3c-16.5-4.7-33.3-8-50.2-10.5c-14.2-2.1-28.4-3.4-42.7-3.9c-12.5-0.4-24.9-0.3-37.4,0.5
	c-9.9,0.6-19.8,1.6-29.5,3.7c-13.6,2.9-26.5,7.6-39,13.6c-17.2,8.3-33.4,18.2-48.3,30.2c-1.8,1.4-3.6,3-5.3,4.5
	c-0.4,0.4-0.8,0.8-1.3,1.1c-1.2,0.8-1.9,0.6-2.5-0.7c-0.3-0.6-0.4-1.2-0.6-1.8c-4.3-15.1-8.5-30.2-12.8-45.3
	c-1.1-3.7-0.7-4.6,2.9-6.3c5.9-2.8,11.9-5.5,17.9-8.1c36.5-15.8,74-28.5,112.4-38.4c21.3-5.5,42.8-10.1,64.5-13.4
	c12.4-1.9,24.8-3.5,37.3-4.8c13.7-1.5,27.5-2.6,41.3-3.6C394.5,133.8,404,133.6,413.4,133.3z M417.2,25c2.9,0.6,5.4,1.1,7.8,1.7
	c9.4,2.2,18.8,4.5,28.1,6.8c1.6,0.4,3.2,0.7,4.7,1c6.4,1.5,11,5.3,13.5,11.4c1.8,4.6,3.3,9.3,4.7,14c4.5,15,7.8,30.3,11,45.6
	c1.9,9.2,3.6,18.4,5.3,27.6c0.1,0.8,0.2,1.5,0.2,2.3c0,1.3-0.4,1.7-1.8,1.8c-0.6,0-1.3,0-1.9-0.1c-9.5-0.8-19-1.5-28.4-2.3
	c-4.7-0.4-9.4-0.8-14.1-1.1c-3.2-0.3-4.5-1.5-5-4.6c-1.4-8.5-2.8-16.9-4.3-25.4c-3.8-21.6-8.4-43.1-14.8-64.2
	c-1.2-4-2.8-7.8-4.2-11.7C417.8,27,417.6,26.2,417.2,25z M174.1,158.9c0.1-18.8,12.9-35.3,31.2-39.1c20.9-4.4,41.1,7.4,47.1,27.2
	c1.2,4.1,0.7,5.1-3.5,6.1c-20.4,5-40.5,10.8-60.4,17.6c-2.5,0.9-5.1,1.7-7.6,2.6c-0.5,0.2-1.1,0.4-1.6,0.4c-1.8,0.3-2.7-0.2-3.2-1.9
	c-0.7-2.5-1.2-5.1-1.6-7.6C174.2,162.5,174.2,160.7,174.1,158.9z"/>
<path class="st0" d="M463.9,537.7c-0.4-0.7-0.8-1.1-1-1.6c-4.3-10.8-9.4-21.2-13.1-32.3c-2.5-7.4-4.9-14.9-7.4-22.3
	c-0.8-2.5-0.3-4.5,1.6-6.3c6.6-6.3,13.1-12.6,19.7-18.9c4.5-4.3,9-8.5,13.5-12.8c2.4-2.3,2.4-4.1,0.1-6.5
	c-6.9-7.1-13.9-14.2-20.8-21.3c-5.5-5.7-10.9-11.4-16.4-17.1c-0.7-0.7-1.5-1.2-2.5-2c0.3-0.7,0.6-1.5,0.9-2.3c2.9-7,5.5-14,6.8-21.5
	c0.5-2.8,0.7-5.7,1.1-8.6c0.1-1,0.3-2.1,0.4-3.1c0.8-5.8,0.6-11.6-0.3-17.5c-1.3-9.2-1.4-18.4-0.4-27.6c0.5-4.4,0.7-8.9,1.1-13.3
	c0.2-2.8,0.5-5.6,0.9-8.4c0.4-2.9,1.8-5.2,4.4-6.6c2.8-1.6,5.6-3,8.4-4.5c1.8-0.9,3.4-0.6,4.9,0.7c2.2,1.9,4.4,3.7,6.6,5.6
	c4.8,4.1,32.6,26.7,45.2,35.8c31.1,22.3,65.8,40,78.8,47.8c0.1,0.1,5.4,3.2,5.4,3.2c-16.8,4.9-30.5,8.3-40.2,10.6
	c-15.1,3.5-22.7,5.1-24.1,5.5c-9.3,2.1-18.7,4.3-28,6.5c-1,0.2-2.3,0.6-2.7,1.4c-0.5,1,0.7,1.8,1.4,2.5
	c11.9,12.3,23.9,24.6,35.8,36.9c0.4,0.5,0.8,0.9,1.2,1.5c0.9,1.2,0.8,2.5-0.1,3.7c-0.7,0.9-1.6,1.8-2.5,2.6
	c-9.2,8.9-18.5,17.8-27.8,26.6c-9.1,8.7-18.2,17.5-27.3,26.2c-0.9,0.8-1.7,1.7-2.5,2.6c-1.1,1.4-1.1,2.4,0,3.9
	c0.6,0.8,1.4,1.6,2.1,2.4c6.7,6.9,13.5,13.8,20.2,20.8c0.3,0.3,0.5,0.6,0.9,1c-1.1,2.4-2.9,4.1-5,6c-1.4-3.3-1.9-6.6-3.2-10
	c-3.1,2.9-5.6,6.3-8.9,9.3c-1.1-3.4-2.1-6.6-3.2-10.1c-3,3.4-5.7,6.5-8.7,9.9c-1.1-3.5-2-6.7-3.1-10.1c-0.5,0.4-0.9,0.7-1.2,1
	c-1.6,1.8-3.2,3.6-4.8,5.4c-0.6,0.7-1.2,1.6-2,2.2C467.2,535.5,465.7,536.5,463.9,537.7z M547.9,253.9c4.1-0.9,7.6-1.7,11.1-2.4
	c15.3-3,30.7-5.4,46.1-6.9c10.5-1,21-1.7,31.6-2.6c0.4,0,0.8,0,1.3,0c2.5,0,3,0.7,2.3,3.1c-2,6.8-4.1,13.6-6.1,20.4
	c-5.9,19.5-11.7,39-17.6,58.4c-0.3,0.9-0.4,2-0.8,2.8c-0.3,0.6-0.8,1.3-1.3,1.4c-0.3,0.1-1.1-0.5-1.5-0.9c-2.5-3.2-5-6.4-7.4-9.8
	c-5.5-8-12-15.3-18.4-22.6c-9.1-10.5-18.7-20.5-28.6-30.2c-2.9-2.8-5.9-5.5-8.8-8.3C549.2,256,548.8,255.1,547.9,253.9z"/>
<path class="st4" d="M481.3,576.3c-1.7-3.4-3.4-6.5-4.8-9.7c-3.7-7.9-7.3-15.8-11-23.8c-0.2-0.5-0.4-0.9-0.5-1.4
	c-0.3-0.8-0.1-1.4,0.6-1.9c2.8-1.8,4.7-4.5,6.7-7c0.5-0.7,1.1-1.3,1.7-1.8c1.2-1,2-0.8,2.5,0.6c0.3,0.9,0.3,1.9,0.5,2.9
	c0.3,1.2,0.2,2.7,1.8,3.1c1.6,0.5,2.4-0.7,3.3-1.8c1.1-1.4,2.2-2.8,3.3-4.1c0.3-0.4,0.6-0.8,1-1c0.9-0.6,1.7-0.3,2,0.7
	c0.4,1.3,0.6,2.7,1,4.1c0.1,0.5,0.2,1,0.3,1.4c0.6,1.7,2.2,2.1,3.5,0.8c0.5-0.5,0.8-1.1,1.3-1.7c0.9-1.2,1.8-2.4,2.7-3.5
	c0.6-0.7,1.3-1.4,2.3-1.2c1.1,0.2,1.3,1.2,1.5,2.1c0.2,1.1,0.4,2.2,0.7,3.3c0.1,0.5,0.2,1.1,0.5,1.6c0.6,1.2,1.8,1.5,2.7,0.4
	c0.6-0.6,0.9-1.4,1.4-2.1c2.3-3.7,4.4-3.9,7.3-0.7c1.1,1.2,2.2,2.4,3.1,3.7c1,1.4,1,2.3-0.2,3.6c-1.1,1.3-2.4,2.3-3.6,3.5
	c-5,4.9-10,9.9-15,14.8c-4.8,4.6-9.7,9-14.5,13.5C482.6,575.4,482.1,575.7,481.3,576.3z"/>
<path class="st5" d="M242.3,272.1c0.4,2-1,3.7-2.7,5.1c-1.5,1.3-3.3,1.9-5.3,1.8c-4.8-0.4-7.9-4.1-7.5-9.1c0.3-3.6,4.7-7.1,8.6-6.9
	C239.3,263.2,242.6,267.5,242.3,272.1z M382,278.5c4.3,0,7.8,3.5,7.7,7.8c-0.1,4-3.8,7.8-7.7,7.9c-4.7,0.1-8.3-3.5-8.3-8
	C373.7,282,377,278.1,382,278.5z"/>
<path class="st6" d="M290.9,362c14.4,0.8,25,6.4,32,18c0.5,0.8,1,1.5,0.4,2.5c-4.7,7.6-9.1,15.4-14.8,22.4c-2.7,3.3-5.5,6.4-9,8.9
	c-2.8,2.1-5.7,3.8-9.2,4.5c-3.4,0.7-6.4,0.1-9.3-1.6c-3-1.8-5.2-4.3-7.2-7c-3.6-4.9-5.9-10.4-7.9-16c-1.7-4.8-3.3-9.6-4.8-14.4
	c-0.9-2.8-0.6-3.9,1.8-5.6c6-4.4,12.2-8.4,19.5-10.2C285.5,362.7,288.7,362.3,290.9,362z"/>
<path class="st7" d="M254.8,348.1c0-2.2,0.6-3.2,2.4-3.6c2.2-0.5,4.4-0.8,6.7-1.1c9-1.6,17.6-4.5,25.5-9.2c2.9-1.7,5.5-1.4,8,0.6
	c1.3,1.1,2.5,2.3,3.7,3.4c6.2,5.6,12.8,10.7,20.2,14.4c3.1,1.5,6.4,2.5,9.6,3.7c0.5,0.2,1.1,0.3,1.6,0.4c1.7,0.5,2,1.2,1.3,2.8
	c-0.3,0.8-0.8,1.5-1.1,2.3c-2.1,4.5-4.2,8.9-6.3,13.4c-0.1,0.3-0.3,0.6-0.5,1c-1,1.7-1.9,1.9-3.3,0.5c-1.7-1.7-3.4-3.4-5-5.1
	c-10.4-11-26.8-14.1-41.1-7.7c-5,2.2-9.5,5.1-14.1,8.1c-0.1,0.1-0.2,0.2-0.4,0.2c-1.9,1.2-2.4,1-2.8-1.1c-1.1-5.5-2.2-11-3.3-16.6
	C255.6,352.3,255.2,350,254.8,348.1z"/>
<path d="M344,355.3c-6.5,1.1-12.6,0.1-18.6-2.5c-7.6-3.3-14.3-8-20.5-13.2c-2.9-2.4-5.5-5-8.3-7.6c-1.6-1.5-2.4-1.6-4.4-0.8
	c-0.9,0.4-1.8,0.9-2.6,1.3c-9.7,5-19.9,8.7-30.7,10.2c-2.8,0.4-5.7,0.8-8.6,0.3c-4-0.6-7.7-2.1-11.6-3.3c-1.4-0.4-2.8-0.8-4.2-1.3
	c0,0.2-0.1,0.3-0.1,0.5c5.6,3.6,11.9,5.5,18.5,6.5c0.1,0.5,0.2,1,0.3,1.4c1.3,7.1,2.4,14.2,3.8,21.2c0.8,3.9,2,7.8,2.9,11.7
	c2,9.7,5.6,18.9,10.3,27.6c2.1,3.8,4.8,7.1,8.3,9.8c4.8,3.6,10,4.2,15.5,2c3-1.2,5.6-2.9,8-5c4.5-4,8.4-8.5,11.9-13.4
	c7.1-10,12.5-20.9,17.8-31.8c1.2-2.4,2.1-4.9,3.1-7.4c1.4-3.2,3.2-4.4,6.7-4.4c1,0,2.1,0.2,3.2,0.1c1.6-0.1,3.3-0.2,5-1.1
	C347.7,354.8,345.8,354.9,344,355.3z M323.3,382.5c-4.7,7.6-9.1,15.4-14.8,22.4c-2.7,3.3-5.5,6.4-9,8.9c-2.8,2.1-5.7,3.8-9.2,4.5
	c-3.4,0.7-6.4,0.1-9.3-1.6c-3-1.8-5.2-4.3-7.2-7c-3.6-4.9-5.9-10.4-7.9-16c-1.7-4.8-3.3-9.6-4.8-14.4c-0.9-2.8-0.6-3.9,1.8-5.6
	c6-4.4,12.2-8.4,19.5-10.2c3.1-0.8,6.4-1.1,8.5-1.5c14.4,0.8,25,6.4,32,18C323.3,380.8,323.9,381.5,323.3,382.5z M333.9,359.7
	c-0.3,0.8-0.8,1.5-1.1,2.3c-2.1,4.5-4.2,8.9-6.3,13.4c-0.1,0.3-0.3,0.7-0.5,1c-1,1.7-1.9,1.9-3.3,0.5c-1.7-1.7-3.4-3.4-5-5.1
	c-10.4-11-26.8-14.1-41.1-7.7c-5,2.2-9.5,5.1-14.1,8.1c-0.1,0.1-0.2,0.2-0.4,0.2c-1.9,1.2-2.4,1-2.8-1.1c-1.1-5.5-2.2-11-3.3-16.6
	c-0.5-2.3-0.9-4.6-1.3-6.4c0-2.2,0.6-3.2,2.4-3.6c2.2-0.5,4.4-0.8,6.7-1.1c9-1.6,17.6-4.5,25.5-9.2c2.9-1.7,5.5-1.4,8,0.7
	c1.3,1.1,2.5,2.3,3.7,3.4c6.2,5.6,12.8,10.7,20.2,14.4c3.1,1.5,6.4,2.5,9.7,3.7c0.5,0.2,1.1,0.3,1.6,0.4
	C334.3,357.4,334.6,358,333.9,359.7z M289.6,308.2c-0.3-2.3,0.6-3.9,2.8-4.5c1.4-0.4,2.9-0.5,4.3-0.7c2.5,0.1,4.9,0.7,7.1,1.8
	c3.2,1.7,3.8,4,1.7,6.9c-2.1,2.8-5.1,4.3-8.3,5.4c-0.4,0.1-1.1-0.1-1.5-0.4c-2.3-1.6-4.2-3.5-5.3-6.1
	C290,309.8,289.7,309,289.6,308.2z M391.5,275.5c-4.1-0.9-8.3-0.3-12.3,0.9c-3.5,1-6.5,2.5-9.2,5.1c-4.9,4.8-7.4,10.5-7.5,17.3
	c0,4.9,1.3,9.5,4,13.6c10.4,15.3,28.8,12.5,36.9,3.3c6.5-7.4,8.5-16.1,5-25.4C405.5,282.5,399.9,277.2,391.5,275.5z M382.1,294.3
	c-4.7,0.1-8.3-3.5-8.3-8c0-4.2,3.3-8.1,8.3-7.7c4.3,0,7.8,3.5,7.7,7.8C389.7,290.4,385.9,294.2,382.1,294.3z M647.2,381.5
	c-8.4-16-17.5-31.7-28.3-46.3c-1.8-2.5-2.4-4.8-1.5-7.6c0.1-0.3,0.2-0.5,0.2-0.8c1.5-4.6,3-9.1,4.3-13.7
	c5.4-18.1,10.7-36.2,16.1-54.3c1.6-5.3,3.2-10.5,4.7-15.8c0.7-2.4-0.1-3.3-2.6-3.1c-1.3,0.1-2.7,0.4-4,0.5c-6.3,0.5-12.7,0.7-19,1.3
	c-8.5,0.8-17,1.6-25.4,2.7c-10.5,1.4-21,3.2-31.5,5c-3.3,0.5-6.5,0.9-9.7,2.2c-1.8,0.8-3.8,0.5-5.5-0.5c-1.2-0.7-2.4-1.5-3.4-2.5
	c-5.6-4.9-11.1-10-16.9-14.7c-5.2-4.3-10.8-8.2-16.1-12.4c-1.6-1.3-3.1-2.8-4.5-4.4c-0.4-0.5-0.7-1.3-0.7-1.9
	c-0.1-1.3,0-2.5,0.1-3.8c0.4-3.6,0-7.1-0.7-10.7c-0.8-4.1-1.7-8.3-2.2-12.5c-1-8.4-1.5-16.8-2.5-25.2c-1.5-11.9-3.2-23.9-5.1-35.8
	c-3.3-20.5-7.8-40.8-13.1-60.9c-2.1-7.8-4.5-15.4-7.5-22.8c-2.2-5.3-6-8.7-11.6-10.1c-6.3-1.6-12.5-3.2-18.8-4.8
	c-13.9-3.4-27.8-6.6-41.9-9.1c-10.8-1.9-21.7-3.6-32.5-5.1c-8.6-1.2-17.3-2.1-26-2.8c-9.2-0.7-18.4-1.2-27.6-1.4
	c-8-0.2-15.9-0.2-23.9,0.2c-9.7,0.5-19.4,1.4-29,2.4c-8.3,0.9-16.7,1.6-24.8,3.7c-5.7,1.5-11.4,2.5-17.1,4
	c-32.7,8.5-62.5,22.8-88.7,44.4c-1.1,0.9-2.4,1.5-3.5,2.3c-0.8,0.6-1.5,1.3-2.1,2c-0.9,1-1.6,2.1-2.5,3.1c-3.2,3.5-6.6,7-9.8,10.5
	c-6.2,7-11.9,14.5-16.5,22.7c-3.6,6.4-5.1,13.4-4.4,20.8c0.2,2.4,0.3,4.8,0.6,7.2c0.7,6.2,1.3,12.3,2.3,18.4
	c1.5,8.8,3.4,17.5,5.1,26.3c0.4,1.9,0.9,3.8,0.8,5.6c-0.1,3.5,0.6,6.7,2.2,9.8c0.5,0.9,0.9,1.8,1.1,2.7c3.4,12.6,6.7,25.2,10.1,37.8
	c0.2,0.7,0.3,1.4,0.3,2.1c-0.1,2.2,0.4,4.3,1.1,6.4c0.9,3,1.8,5.9,2.8,8.9c0.9,2.7,1.8,5.3,2.7,8.2c-2.3,2-5.3,4.7-8.8,7.9
	c-22.1,19.7-33.3,29.8-37.7,42.6c-1.6,4.5-3,11-1,12.2c1.4,0.8,4.3-0.9,5.6-1.6c2.1-1.2,3.4-2.6,3.6-2.7
	c2.2-2.3,17.8-10.7,57.8-30.1c-7.4,14.3-19.9,40.2-28.6,69.1c-5.1,16.8-7.3,29.7-7.9,32.8c-1.7,9.4-2.8,18.8-3.3,28.3
	c-0.3,7-0.2,14.1-0.2,21.1c0,2.9,1.3,3.8,3.9,2.8c4.5-1.7,9-3.4,13.2-5.6c15.4-8.1,28.5-19.2,39.7-32.4c2.5-3,4.9-6.2,7.4-9.2
	c1.3-1.6,2-1.6,3.2,0.1c0.1,0.1,0.2,0.2,0.2,0.4c5.1,8.1,10.9,15.6,17.5,22.5c2,2,2.5,4.2,1.9,6.9c-1.6,7.1-2.9,14.2-4.6,21.3
	c-2.3,8.9-0.7,4.4-7.3,26.2c-6.1,20.2-11.8,35.5-13.2,39.2c-6.8,18-14.4,36.9-26,60c-3,6-6.3,12-8.4,18.4
	c-4.1,12.7-4.3,25.6-1.9,38.6c0.1,0.4,0,0.9,0,1.6c-1-0.5-1.7-0.8-2.4-1.3c-3.5-2.4-7-4.9-10.6-7.3c-4.4-3-8.9-5.6-13.8-7.7
	c-1.2-0.5-2.5-1-3.8-1c-2.2-0.1-3.1,1-3.1,3.1c0,0.7,0,1.5,0,2.5c-1.8-0.6-3.2-1.2-4.7-1.7c-1.3-0.4-2.7-0.9-4.1-1.1
	c-1.7-0.2-2.5,0.7-2.3,2.4c0.1,0.7,0.4,1.3,0.6,2c0.2,0.5,0.3,1,0.5,1.6c-1.5,0.5-2.9,0.8-4.2,1.3c-1.9,0.8-2.5,2.1-2.1,4.1
	c0.2,1,0.5,1.9,1,2.8c1.1,2,2.3,4,3.4,6.1c0.5,0.8,0.8,1.6,1.3,2.4c0.6,1,1,2.2,1.7,3.1c5.6,7.4,12,14.1,18.5,20.6
	c5.1,5.1,10.2,10.1,15.3,15.2c8.1,8.1,16.8,15.4,26.1,22.2c0.6,0.5,1.3,1,2,1.1c1.8,0.2,3.1,1.2,4.6,2c2.4,1.2,4.7,2.6,7.1,3.7
	c4.8,2.3,9.8,3.8,15.3,3.4c3.2-0.2,6.1-1.3,8.3-3.7c1.6-1.7,3.2-3.6,4.3-5.7c1.2-2.4,3-3.8,5.5-4.5c7.2-2,14.4-4,21.6-5.8
	c1.2-0.3,2.7-0.1,3.9,0.1c2.7,0.5,4.9,2.1,6.7,4.2c1.6,1.8,2.4,3.9,2.3,6.4c-0.2,3.9,0.7,4.7,4.6,3.8c1.5-0.3,3-0.9,4.5-1.3
	c1.7-0.5,3.1,0,4.2,1.2c0.3,0.4,0.6,0.8,1,1.1c2,2,4,2.1,6.1,0.1c0.8-0.7,1.5-1.5,2.3-2.2c2-1.7,3.7-1.7,5.7,0c0.5,0.4,1,1,1.6,1.4
	c1.3,1,2.3,0.9,3.3-0.3c0.7-0.8,1.3-1.8,1.9-2.8c1.4-2.5,1.5-2.5,4-1.3c2.3,1.1,4,0.7,5.5-1.3c0.4-0.6,0.8-1.2,1.2-1.8
	c0.7-1.2,1.7-1.6,3-1.4c0.4,0.1,0.8,0.2,1.3,0.2c2.1,0,3.1-1.1,3.1-3.1c0-0.8-0.2-1.5-0.3-2.3c-0.2-2.1-0.6-4.2-0.6-6.3
	c-0.1-2.9,1.2-4.3,4.1-4.6c1.2-0.2,2.4-0.2,3.6-0.2c11.1-0.2,22.3-0.3,33.4-0.4c1.8,0,3.7,0.1,5.5,0.3c2.5,0.3,3.4,1.5,3.5,4
	c0,1.2-0.1,2.4-0.2,3.6c-0.1,1.5-0.4,2.9-0.5,4.4c-0.2,2.6,0.8,3.7,3.4,3.5c0.1,0,0.3,0,0.4,0c1.7-0.4,2.9,0.3,3.8,1.7
	c0.4,0.5,0.7,1,1.1,1.5c1.9,2.7,1.9,2.7,4.8,1.1c1.6-0.9,2.8-0.7,3.9,0.7c0.6,0.7,1.1,1.5,1.5,2.3c1.9,2.9,2.3,3,4.9,0.7
	c2.5-2.1,4.7-2.2,7.2-0.1c1,0.8,1.9,1.9,2.9,2.8c1.3,1.3,2,1.3,3.1,0c2.6-3.1,5.9-3.6,9.6-2.8c1,0.2,2,0.6,3,0.8
	c0.5,0.1,1,0.3,1.4,0.3c1.3,0.1,1.9-0.3,2-1.6c0.1-1,0-2-0.1-3c-0.2-1.9,0.3-3.4,1.7-4.8c2.2-2.2,4.5-4.5,6.5-7
	c1.7-2.1,3.6-2.6,6.1-2.2c3.7,0.6,7.4,1,11.1,1.6c8.5,1.3,17.1,2.8,25.6,4.1c2.1,0.3,3.4,1.4,4.4,3.2c1.2,2,2.4,4,3.9,5.7
	c3.1,3.5,7.1,4.9,11.8,4.5c5.5-0.4,10.4-2.5,15.2-5c7.5-3.9,14.3-8.8,20.6-14.3c7-6.2,13.8-12.7,20.7-19c1.7-1.5,3.3-3,5-4.5
	c1.2-1,2.6-1.9,3.8-3c1.8-1.7,3.5-3.5,5.2-5.2c6.6-6.5,12.6-13.5,18.2-20.9c2-2.6,3.7-5.5,5-8.6c1-2.3,0.5-4.4-0.8-6.4
	c-0.5-0.7-1.1-1.3-1.7-1.9c-1.8-1.8-3.5-3.6-4.3-6.1c-3-0.8-5.6,0.7-8.3,1.3c-0.3-0.7-0.6-1.2-0.8-1.7c-1.1-2.3-2.3-3-4.7-2.7
	c-0.9,0.1-1.8,0.3-2.6,0.7c-3.4,1.7-7,3.2-10.1,5.2c-6.4,4-12.5,8.4-18.8,12.6c-0.7,0.5-1.4,0.9-2.3,1.5c2.1-17.1,1.8-33.6-6.2-48.9
	c0.2-0.3,0.3-0.4,0.4-0.5c7.4-7,14.8-14.1,22.3-21c4.5-4.2,8.5-8.8,13.6-12.3c0.7-0.5,1.1-1,1.2-1.7c0.1-0.7-0.2-1.2-0.3-1.5
	c-2.8-5.4-13-14.6-13-14.6c-5.5-5-4.4-4.3-9.2-9.3c-2.7-2.8-5.2-5.8-7.9-8.5c-2.7-2.6-2.8-4.2,0-6.6c1.1-0.9,2.1-1.8,2.7-3.2
	c0.2-0.5,0.7-0.9,1.1-1.3c7.5-7.4,15-14.8,22.6-22.2c10.2-9.9,20.5-19.7,30.8-29.6c1.8-1.7,1.8-2.7,0.1-4.4
	c-5.3-5.5-10.7-11.1-16-16.5c-7.2-7.4-14.4-14.7-21.7-22c-0.3-0.3-0.6-0.7-0.9-1.2c0.5-0.2,0.8-0.4,1.1-0.4c8.5-2,17-4,25.5-6
	c5.8-1.3,11.7-2.5,17.5-3.9c16.2-3.7,21.2-4.8,24.1-5.5c8.2-2,13.6-3.4,15.8-4c4.9-1.3,9.1-2.5,12.3-3.5c11.7,4.5,21.3,6.6,28,7.7
	c11.1,1.8,13.9,0.7,14.6-0.7C648.3,383.5,647.5,382.2,647.2,381.5z M425,26.7c9.4,2.2,18.8,4.5,28.1,6.8c1.6,0.4,3.2,0.7,4.7,1
	c6.4,1.5,11,5.3,13.5,11.4c1.8,4.6,3.3,9.3,4.7,14c4.5,15,7.8,30.3,11,45.6c1.9,9.2,3.6,18.4,5.3,27.6c0.1,0.8,0.2,1.5,0.2,2.3
	c0,1.3-0.4,1.7-1.8,1.8c-0.6,0-1.3,0-1.9-0.1c-9.5-0.8-19-1.5-28.4-2.3c-4.7-0.4-9.4-0.8-14.1-1.2c-3.2-0.3-4.5-1.5-5-4.6
	c-1.4-8.5-2.8-17-4.3-25.4c-3.8-21.6-8.4-43.1-14.8-64.2c-1.2-4-2.8-7.8-4.2-11.7c-0.3-0.7-0.5-1.5-0.9-2.7
	C420.1,25.6,422.5,26.1,425,26.7z M106.9,201c-0.2-0.5-0.3-1.1-0.5-1.6c-4.1-15.6-7.5-31.4-10.2-47.3c-1.1-6.8-2-13.6-2.8-20.5
	c-0.4-4-0.5-8-0.4-12c0.2-6.3,2.9-11.9,6.4-17c6.1-8.9,12.9-17.3,20.4-25.1c21-21.7,46.2-36.7,74.3-47.2c17.7-6.7,36-11.2,54.7-14
	c13.5-2,27.1-3.3,40.8-3.8c5.5-0.2,11.1-0.3,16.6-0.5c15.1,0.1,30.1,1.1,45.1,2.6c16.9,1.7,33.7,4.4,50.3,7.5c2.7,0.5,5.4,1,8.1,1.3
	c3.4,0.4,5.6,2.3,6.8,5.3c1.7,4.3,3.4,8.7,4.8,13.1c3.6,11.1,5.9,22.5,8.4,33.8c3.7,16.9,6.9,34,9.7,51c0.2,1.3,0.3,2.7,0.5,4
	c0.1,1.1-0.5,1.7-1.6,1.8c-0.6,0-1.1,0.1-1.7,0.1c-11.7-0.9-23.4-1-35.1-0.5c-11.3,0.5-22.6,1.4-33.9,2.3c-10.3,0.9-20.6,2-30.9,3.1
	c-8.2,0.9-16.3,2.1-24.5,3.1c-1.4,0.2-2.8,0.4-4.2,0.4c-2.1,0-3.1-0.7-3.8-2.7c-0.4-1.1-0.6-2.3-0.9-3.5c-3.2-14-9.8-26.2-19.5-36.7
	c-14.1-15.2-31.6-24-52.1-26.8c-14.8-2-29.4-1-43.6,3.9c-13.1,4.5-24.7,11.7-34.6,21.4c-11.1,10.9-18.1,24.2-21.1,39.5
	c-3.2,16.5-1.3,32.4,5.8,47.6c0.4,0.8,0.7,1.5,1,2.3c0.5,1.6,0.2,2.5-1.2,3.4c-0.5,0.3-1.1,0.6-1.7,0.8c-8.7,3.9-17.4,7.7-26.1,11.5
	c-0.3,0.1-0.5,0.3-0.8,0.3C108.3,202.7,107.5,202.4,106.9,201z M236.2,123.7c-16.2-10.6-38-7.5-50.8,5.3c-9.1,9-13.1,20-12.4,32.7
	c0.1,2.9,0.9,5.8,1.4,8.7c0.1,0.6,0.4,1.2,0.5,1.8c0.5,2.3,0,3.2-2.2,4.1c-4.1,1.6-8.2,3-12.3,4.6c-4.6,1.8-9.2,3.6-13.8,5.4
	c-3.8,1.5-4.9,1.1-6.7-2.6c-4.9-10.3-7.4-21.1-7.4-35.2c0.3-17.1,7.1-34.4,20.6-49c13.3-14.4,29.8-22.8,49-26.1
	c7.1-1.2,14.3-2,21.5-1.6c28.3,1.5,50.8,13.6,67.1,37.1c6.1,8.8,10.2,18.5,12.2,29c0.1,0.4,0.1,0.8,0.2,1.3c0.2,2.2-0.4,3-2.5,3.4
	c-2.1,0.5-4.3,0.8-6.4,1.1c-11.6,1.9-23.1,4.3-34.5,7.1c-4.1,1-4.4,0.8-5.8-3.2C250.6,137.6,245,129.5,236.2,123.7z M248.9,153.1
	c-20.4,5-40.5,10.8-60.4,17.6c-2.5,0.9-5.1,1.7-7.6,2.6c-0.5,0.2-1.1,0.4-1.6,0.5c-1.8,0.3-2.7-0.2-3.2-2c-0.7-2.5-1.2-5.1-1.6-7.6
	c-0.3-1.7-0.3-3.5-0.4-5.2c0.1-18.8,12.9-35.3,31.2-39.1c20.9-4.4,41.1,7.5,47.1,27.2C253.6,151.1,253,152.1,248.9,153.1z
	 M108.9,209.3c-1-3.7-0.7-4.6,2.9-6.3c5.9-2.8,11.9-5.5,17.9-8.1c36.5-15.8,74-28.5,112.4-38.5c21.3-5.5,42.8-10.1,64.5-13.4
	c12.4-1.9,24.8-3.5,37.3-4.8c13.7-1.5,27.5-2.6,41.3-3.6c9.4-0.7,18.9-0.9,28.3-1.3c12,0.1,24,0.9,35.9,1.8
	c12.6,1,25.3,2.1,37.9,3.1c0.8,0.1,1.7,0.2,2.5,0.3c2.6,0.4,3.7,1.4,4.1,4.1c0.5,3.3,0.9,6.7,1.3,10.1c1.1,10.4,2.2,20.7,3.3,31.1
	c0.9,8.8,1.8,17.7,2.6,26.5c0.1,0.8,0.1,1.5,0.1,2.3c0,2.5-0.9,3.7-3.3,4.2c-1.7,0.4-3.5,0.6-5.2,0.9c-16.4,2.8-32.8,5.5-49.2,8.2
	c-7.6,1.3-15.1,2.5-22.7,3.8c-1.7,0.3-3.3,0.1-5-0.4c-12.4-3.8-24.7-7.8-37.2-11.3c-16.5-4.7-33.3-8-50.2-10.5
	c-14.2-2.1-28.4-3.4-42.7-3.9c-12.5-0.4-24.9-0.3-37.4,0.5c-9.9,0.6-19.8,1.6-29.5,3.7c-13.6,2.9-26.5,7.5-39,13.5
	c-17.2,8.3-33.4,18.2-48.3,30.2c-1.8,1.5-3.6,3-5.3,4.5c-0.4,0.4-0.8,0.8-1.3,1.1c-1.2,0.8-1.9,0.6-2.5-0.7
	c-0.3-0.6-0.4-1.2-0.6-1.8C117.4,239.5,113.1,224.4,108.9,209.3z M114.3,298.2c-13.4,6.8-24.4,12.6-32,16.6c-2.9,3-6.2,6-7.6,5.2
	c-1.8-1.1,0.4-8.9,3.2-14.7c2.6-5.3,5.8-8.9,15.5-18.6c6.9-6.9,10.4-10.3,13.4-13c11.6-10.4,27.6-24.7,50.5-38.2
	c8.7-5.1,26.6-15.6,49.7-22.7c9.3-2.8,35.3-10.1,87.7-6.3c29,2.1,70.9,7.9,120.1,24.8c-2.2,2-5.5,4.8-9.7,8
	c-7.7,5.7-23.7,17.4-44.7,21.2c-4.9,0.9-11.4,0.8-24.2,0.7c-23.8-0.3-41.5-1.6-46.2-1.9c-40-2.7-74.5,3.4-81.6,4.8
	c-12.5,2.3-35.4,6.7-61.8,18.4C137.6,286.5,126.7,292,114.3,298.2z M239.6,277.3c-1.5,1.3-3.3,1.9-5.3,1.8c-4.8-0.4-7.9-4.1-7.5-9.1
	c0.3-3.6,4.7-7.2,8.6-6.9c3.8,0.2,7.2,4.5,6.9,9.2C242.7,274.2,241.3,275.8,239.6,277.3z M160.5,378.5c-1.3-3.7-2.7-7.3-3.9-10.9
	c-1.2-3.7-2.3-11-2.3-14.8c0-5.7,1.1-11.2,3.1-16.5c2.2-5.8,4.4-11.5,6.8-17.3c1.9-4.5,5.1-7.7,10.1-8.2c2.4-0.3,4.8-0.2,7.2,0.1
	c9.8,1.4,17.1,6.8,22.3,15.1c8.5,13.7,8.5,32.9,0,46.4c-3.2,5.1-7.5,9.2-12.8,12c-7.8,4.1-15.6,3.7-23.7,0.9
	C163.6,384.2,161.7,381.9,160.5,378.5z M513.4,535.8c1.1,1.2,2.2,2.4,3.1,3.7c1,1.4,1,2.3-0.2,3.6c-1.1,1.3-2.4,2.3-3.6,3.5
	c-5,4.9-10,9.9-15,14.8c-4.8,4.6-9.7,9-14.5,13.5c-0.5,0.4-1,0.7-1.8,1.3c-1.7-3.4-3.3-6.5-4.8-9.7c-3.7-7.9-7.3-15.8-11-23.8
	c-0.2-0.5-0.4-0.9-0.5-1.4c-0.3-0.8-0.1-1.4,0.6-1.9c2.8-1.8,4.7-4.5,6.7-7c0.5-0.7,1.1-1.3,1.7-1.8c1.2-1,2-0.8,2.5,0.6
	c0.3,0.9,0.3,1.9,0.5,2.9c0.3,1.2,0.2,2.7,1.8,3.1c1.6,0.5,2.4-0.7,3.3-1.8c1.1-1.4,2.2-2.8,3.3-4.1c0.3-0.4,0.6-0.8,1-1
	c0.9-0.6,1.7-0.3,2,0.7c0.4,1.3,0.6,2.7,1,4.1c0.1,0.5,0.2,1,0.3,1.4c0.6,1.7,2.2,2.1,3.5,0.8c0.5-0.5,0.8-1.1,1.3-1.7
	c0.9-1.2,1.8-2.4,2.7-3.5c0.6-0.7,1.3-1.4,2.3-1.2c1.1,0.2,1.3,1.2,1.5,2.1c0.2,1.1,0.4,2.2,0.7,3.3c0.1,0.5,0.2,1.1,0.5,1.6
	c0.6,1.2,1.8,1.5,2.7,0.4c0.6-0.6,0.9-1.4,1.4-2.1C508.3,532.8,510.4,532.6,513.4,535.8z M561.6,386.9c-15.1,3.5-22.7,5.1-24.1,5.5
	c-9.3,2.1-18.7,4.3-28,6.5c-1,0.2-2.3,0.6-2.7,1.4c-0.5,1,0.7,1.8,1.4,2.5c11.9,12.3,23.9,24.6,35.8,36.9c0.4,0.5,0.8,0.9,1.2,1.5
	c0.9,1.2,0.8,2.5-0.1,3.7c-0.7,0.9-1.6,1.8-2.5,2.6c-9.2,8.9-18.5,17.8-27.8,26.6c-9.1,8.7-18.2,17.5-27.3,26.2
	c-0.9,0.8-1.7,1.7-2.5,2.6c-1.1,1.4-1.1,2.4,0,3.8c0.6,0.8,1.4,1.6,2.1,2.4c6.7,6.9,13.5,13.8,20.2,20.8c0.3,0.3,0.5,0.6,0.9,1
	c-1.1,2.4-2.9,4.1-5,6c-1.3-3.3-1.9-6.6-3.2-10c-3.1,2.9-5.6,6.3-8.8,9.3c-1.1-3.4-2.1-6.6-3.2-10.1c-3,3.4-5.7,6.5-8.7,9.9
	c-1.1-3.5-2-6.7-3.1-10.1c-0.5,0.4-0.9,0.7-1.2,1c-1.6,1.8-3.2,3.6-4.8,5.4c-0.7,0.7-1.2,1.6-2,2.2c-1.4,1-2.9,2-4.6,3.2
	c-0.4-0.7-0.8-1.1-1-1.6c-4.3-10.8-9.4-21.2-13.1-32.3c-2.5-7.4-4.9-14.8-7.4-22.3c-0.8-2.5-0.3-4.5,1.6-6.3
	c6.6-6.3,13.1-12.6,19.7-18.9c4.5-4.3,9-8.5,13.5-12.8c2.4-2.3,2.4-4.1,0.1-6.5c-6.9-7.1-13.9-14.2-20.8-21.3
	c-5.5-5.7-10.9-11.4-16.4-17.1c-0.7-0.7-1.5-1.2-2.5-2c0.3-0.7,0.6-1.5,0.9-2.3c2.9-7,5.5-14,6.8-21.5c0.5-2.8,0.7-5.7,1.1-8.6
	c0.1-1,0.3-2.1,0.4-3.1c0.8-5.8,0.6-11.6-0.3-17.5c-1.3-9.2-1.4-18.4-0.4-27.6c0.5-4.4,0.7-8.8,1.1-13.3c0.2-2.8,0.5-5.6,0.9-8.4
	c0.4-2.9,1.8-5.2,4.4-6.6c2.8-1.6,5.6-3,8.4-4.5c1.8-0.9,3.4-0.6,4.9,0.7c2.2,1.9,4.4,3.7,6.6,5.6c4.8,4.1,32.6,26.7,45.2,35.8
	c31.1,22.3,65.8,40,78.8,47.8c0.1,0.1,5.4,3.2,5.4,3.2C585,381.3,571.2,384.7,561.6,386.9z M436.6,400.1c0.4,0.3,0.8,0.5,1.1,0.8
	c7.4,7.6,14.8,15.2,22.3,22.8c4,4.1,7.9,8.2,11.9,12.3c0.2,0.2,0.4,0.4,0.6,0.6c3.3,3.3,3.3,3.8,0.1,6.9c-4.4,4.3-8.8,8.5-13.2,12.7
	c-5,4.8-10,9.7-15,14.6c-2.3,2.2-3,2.1-4-0.9c-1.8-5.6-3.4-11.3-4.9-17c-2.9-10.8-5.4-21.7-7.3-32.7c-0.2-0.9-0.8-1.7-1.5-2.9
	C429.2,411.4,434.1,406.5,436.6,400.1z M426.2,411.8c-4.6,6.1-10.8,9.3-18.4,9.9c-5.9,0.5-11.3-0.7-16.3-3.8
	c-2.7-1.7-4.8-3.9-6.5-6.6c-3.7-5.9-5.7-12.4-6.6-19.2c-0.4-2.5-0.5-5-0.7-7.6c0.2-8.7,2-17,7.1-24.2c5.9-8.4,13.9-13.8,24.2-15.2
	c9-1.3,17.1,1.4,24.4,6.9c4.4,3.4,7.9,7.6,10.2,12.7c0.8,1.7,1,3.5,0.7,5.3C441.4,385.4,435.6,399.3,426.2,411.8z M448.8,283.2
	c0-0.3,0-0.6,0-0.8h0.3c0-3.1,0-6.1,0.1-9.2c0-0.4,0.3-1.2,0.6-1.2c0.5-0.1,1.3,0,1.7,0.4c1.7,1.5,3.3,3.1,5,4.5
	c0.9,0.8,1.9,1.5,2.9,2.1c0.6,0.3,1.2,0.6,1,1.3c-0.1,0.5-0.5,1-1,1.2c-2.3,1.3-4.7,2.5-7,3.8C449.7,286.8,448.9,286.3,448.8,283.2z
	 M600.1,321.9c-4.9,2.5-13.9,6.6-37.6,10.4c-18.1,2.9-22.9,2.2-26.6,1.1c-5.9-1.7-9.9-4.4-12.3-6.1c-17.9-12.4-34.1-25.9-39.5-30.4
	c-13-10.6-25.6-21.6-38-32.9c-0.9-0.8-1.8-1.8-2.7-2.6c-0.8-0.8-1.8-1.4-3.2-1.3c0.2,1.1,0.7,1.9,1.4,2.5c0.4,0.4,0.9,0.8,1.3,1
	c4.4,2.8,5.7,6.9,5.2,11.8c-1.2,12-2.6,24-3.5,36c-1,12.7-0.9,25.5-0.1,38.2c0.2,2.2,0.4,4.3,0.7,6.5c0.2,2.1,0.3,4.2-0.5,6.5
	c-0.8-1.2-1.5-2.1-2.2-3.1c-5.3-7.5-12.2-13.1-21.3-15.5c-12.5-3.2-23.5,0-32.6,9c-7.3,7.2-11.1,16.2-12.3,26.3
	c-1.2,9.7,0.9,18.9,4.9,27.7c0.8,1.8,1.7,3.5,2.7,5.3c3.3,6,8.5,9.3,15.1,10.3c5.4,0.9,10.7,0.4,15.9-1c0.6-0.2,1.2-0.3,1.9-0.5
	c0,1.3-0.7,2-1.5,2.6c-8.4,7.3-17.3,14.1-27.3,19.2c-4.6,2.3-9.3,4.4-13.9,6.6c-1.3,0.6-2.3,1.4-2.6,3.1c0.4-0.1,0.7-0.1,1-0.2
	c11.1-4.6,21.8-10,31.5-17c5.3-3.8,10.2-8,14.6-12.8c1.3-1.4,2.7-2.9,4.1-4.2c0.3-0.3,1-0.6,1.2-0.5c0.4,0.2,0.8,0.8,0.9,1.3
	c0.8,4.2,1.6,8.4,2.4,12.6c3.1,15.8,7.6,31.3,12.4,46.7c6,19.5,12.9,38.7,21.1,57.5c5.5,12.5,10.8,25,17,37c1.7,3.2,3.6,6.4,4.9,9.8
	c4.8,12.3,6.2,25.1,4.4,38.2c-0.3,2.2-0.6,4.3-1.1,6.5c-0.9,3.5-2.9,6.4-6.1,8.2c-1.3,0.7-2.5,1.6-2.6,3.6c0.8-0.6,1.5-1,2-1.5
	c8.5-6.2,16.9-12.5,25.5-18.5c4.9-3.4,10.2-6.3,15.3-9.3c0.5-0.3,1.1-0.6,1.7-0.8c1.2-0.4,2.3-0.3,3.1,0.6c0.8,0.9,0.7,2,0.2,3
	c-0.3,0.6-0.6,1.3-1,1.9c-4.5,7.2-9.4,14-14.9,20.5c-0.5,0.6-0.8,1.3-1.2,2.1c1.4,0.3,2-0.4,2.5-1.1c3.8-5.2,7.8-10.4,11.5-15.7
	c2.5-3.6,5.6-6,9.8-7.2c1.3-0.4,2.7-0.8,4.5-1.3c-0.6,1.1-0.8,1.8-1.2,2.4c-2.9,5-6.6,9.3-10.6,13.4c-3.3,3.5-6.7,7-10.1,10.5
	c-0.4,0.4-0.7,0.8-1.1,1.3c0.9,0.7,1.5,0.2,2-0.3c1.4-1.4,2.7-2.8,4.1-4.3c4.5-4.8,8.9-9.6,13.5-14.3c1.5-1.5,3.4-2.3,5.5-2.5
	c2.9-0.2,4.3,2.2,3,4.8c-2.2,4.3-4.8,8.3-7.9,12c-4.4,5.1-8.9,10.2-13.6,15.1c-7.5,7.8-15.1,15.4-22.9,22.9
	c-8.5,8.2-17.7,15.8-27.7,22.1c-4.6,2.9-9.5,5.3-14.8,6.6c-2.6,0.7-5.3,1-8,0.5c-5-0.8-8.2-3.8-10.3-8.2c-0.7-1.5-1.2-3.2-1.7-4.8
	c-0.3-0.8-0.5-1.6-0.8-2.8c-1.5,3-3.8,2.5-6.1,2.1c-11.1-1.9-22.2-4-33.4-5c-0.7-0.1-1.4-0.2-2-0.3c-0.7-0.9-0.3-1.7,0.3-2.3
	c12.7-15.3,22-32.5,28.7-51.2c3.9-11,6.7-22.4,9.6-33.7c1.8-7.1,3.5-14.2,5.3-21.3c0.2-0.8,0.7-1.8-0.2-2.7
	c-1.1,0.2-1.4,1.1-1.6,2.1c-4.4,17.8-8.5,35.7-14.2,53.2c-5.3,16.2-13.4,31-23.2,44.9c-5.2,7.3-10.7,14.3-17.2,20.5
	c-1.6,1.5-2.5,3.2-2.1,5.5c0.1,0.4,0,0.8,0,1.3c-0.1,1.3-0.8,1.9-2.1,1.8c-0.8-0.1-1.5-0.3-2.3-0.5c-1.1-0.3-2.2-0.6-3.3-0.8
	c-2.3-0.3-4.3,0.4-5.9,2.2c-1.9,2-2.5,2-4.5,0.1c-0.9-0.9-1.8-1.8-2.8-2.5c-2-1.5-4-1.5-6,0.1c-0.5,0.4-0.9,0.8-1.4,1.2
	c-1.2,0.9-1.9,0.8-2.8-0.4c-0.7-0.9-1.2-1.9-1.8-2.8c-1.7-2.4-2.7-2.5-5.1-0.9c-1.6,1.1-2.2,1-3.4-0.5c-0.6-0.7-1.1-1.5-1.6-2.2
	c-0.7-1-1.6-1.6-2.8-1.4c-0.4,0-0.9,0.1-1.3,0c-1.8-0.2-2.5-1-2.5-2.8c0-0.5,0-1,0.2-1.5c1-3.5,0.5-6.8-0.6-10.2
	c-2.4-7-4.1-14.2-5.3-21.5c-1.2-7.2-1.9-14.5-2-21.9c-0.1-3.5-0.2-6.9-0.3-10.3c0-0.9,0.3-1.8,0.4-2.7c0.1-0.6,0.3-1.2,0.3-1.8
	c1.2-21.5,5.7-42.4,13.4-62.5c0.8-2,0.8-2,0.4-3.4c-1.2-0.3-1.4,0.8-1.6,1.5c-1.5,4-3,7.9-4.3,11.9c-3.1,9.4-5.5,18.9-7.1,28.7
	c-1.3,7.9-2.3,15.9-2.3,23.9c0,3-0.3,5.9-0.4,8.9c-0.4,14.5,1.5,28.8,5.4,42.8c0.2,0.8,0.5,1.6,0.5,2.5c0.2,1.7-0.2,2.4-2,2.5
	c-2.2,0.2-4.5,0.1-6.7,0c-10.1-0.2-20.3-0.2-30.4,0.4c-1.3,0.1-2.7,0.3-4,0.3c-2.1,0-2.7-0.7-2.3-2.7c0.6-2.9,1.3-5.8,2-8.6
	c3.4-15.5,4.5-31.2,3.5-47.1c-1.3-20.3-5.9-39.8-12.7-58.9c-0.5-1.3-1-2.6-1.5-3.9c-0.1-0.3-0.6-0.5-1.3-0.7c0.1,0.7,0,1.5,0.3,2.1
	c4.1,10.1,7,20.7,9.4,31.3c3.2,14.3,4.9,28.7,4.7,43.4c-0.2,15.5-2.3,30.7-6.9,45.6c-0.8,2.7-1.7,5.4-1.6,8.3c0,1.6,0.3,3.2,0.6,4.8
	c0.3,1.7-0.1,2.3-1.8,2.5c-0.5,0-1,0-1.5,0c-1.3-0.1-2.3,0.4-3,1.6c-0.2,0.4-0.5,0.7-0.7,1c-1.7,2.2-3.2,2.5-5.7,1.4
	c-2.3-1.1-2.5-1-3.8,1.2c-0.5,0.8-1,1.7-1.6,2.5c-1.2,1.5-2.3,1.6-3.8,0.4c-0.4-0.3-0.7-0.7-1.1-1c-2-1.6-3.7-1.6-5.7,0.1
	c-0.8,0.7-1.5,1.5-2.2,2.2c-2,1.7-4.2,1.8-5.8-0.2c-2-2.6-4.3-2.5-7-1.5c-1,0.4-2.2,0.6-3.3,0.8c-1.8,0.2-2.3-0.3-2.4-2.1
	c0-0.1,0-0.3,0-0.4c0.4-2.4-0.6-4.2-2.3-5.8c-2.4-2.3-4.8-4.6-6.9-7.2c-3.5-4.3-6.7-8.7-10-13.1c-13.6-18.8-22.9-39.5-28.5-62
	c-2.8-11.4-5.9-22.8-8.8-34.1c-0.2-0.7-0.4-1.4-0.5-2.1c-0.2-1.4-1-2.3-2.4-2.6c0,0.4-0.1,0.8,0,1.1c4,15.5,7.9,31,12.2,46.3
	c4.1,14.6,9.8,28.7,17.9,41.6c4.1,6.6,8.8,12.8,13.2,19.1c1.4,1.9,2.8,3.8,4.3,5.9c-0.9,0.3-1.5,0.6-2.2,0.7
	c-7.7,2.1-15.5,4.2-23.2,6.3c-1.4,0.4-2.8,0.5-3.9-1c-0.4,1.2-0.7,2.3-1.1,3.3c-0.8,2.6-1.9,5-3.7,7c-3.7,4-8.3,5-13.5,4.1
	c-5.8-1-11-3.3-16-6.4c-9.1-5.7-17.5-12.4-25.4-19.7c-13-12.1-25.6-24.6-37.3-38c-2.4-2.7-4.5-5.6-6.6-8.5c-1.4-2-2.6-4.2-3.8-6.3
	c-0.6-1.1-1.2-2.3-0.3-3.5c1-1.2,2.3-1.6,3.8-1.4c2.1,0.2,3.7,1.3,5.1,2.8c3.7,3.9,7.3,7.8,11,11.7c1.6,1.7,2.8,4.4,5.8,6.1
	c1,0.6,2,0.9,2.6,1.1c-1.9-2.1-3.7-4.1-5.5-6c-3.5-3.7-7.1-7.3-10.4-11.1c-2.3-2.7-4.2-5.7-6.2-8.5c-0.4-0.5-0.6-1.2-1.1-2.2
	c5.4,1,10,2.5,13.2,6.8c4.2,5.7,8.3,11.4,12.5,17c0.6,0.8,1.1,1.7,2.3,1.7c0.5-0.9,0-1.4-0.5-2c-5.8-6.9-11.3-14.1-15.7-22
	c-0.1-0.2-0.2-0.4-0.3-0.5c-0.7-1.5-0.7-2.6,0.1-3.3c1-1,2.3-0.8,3.3-0.2c5,2.8,10.2,5.3,14.8,8.5c9.3,6.4,18.4,13.2,27.6,19.9
	c0.6,0.5,1.2,0.9,1.8,1.3c0.8-0.4,0.7-1,0.3-1.4c-1.6-1.3-3.1-2.8-4.9-3.7c-6.3-3.1-9.7-8.3-10.7-15c-2.4-16.1,0.1-31.5,7.5-46
	c13.8-26.9,25.8-54.5,35.6-83.1c7.4-21.6,13.4-43.6,18.1-66c0.5-2.3,0.9-4.7,1.5-7.3c6.5,5.6,12.7,11.1,19,16.6
	c0.6-1,0.5-1.5-0.1-2.1c-0.5-0.5-1.1-0.9-1.6-1.3c-13.2-10.7-24.9-22.9-34.7-36.8c-2.3-3.2-4.3-6.6-6.4-10c-0.4-0.6-0.6-1.2-0.9-1.8
	c0.8-0.9,1.4-0.4,2-0.2c3.3,1.2,6.8,2,10.3,2.2c8.6,0.5,15.9-2.3,22.1-8.3c7.5-7.2,11.5-16.1,12.6-26.3c1.4-12.3-1.4-23.5-9-33.4
	c-4.6-6-10.4-10-17.8-11.7c-4.9-1.1-9.8-0.8-14.7,0.5c-0.8,0.2-1.6,0.4-2.7,0.7c0.3-1.3,0.5-2.4,0.7-3.5c1.7-7,3.4-13.9,5.1-20.9
	c0.4-1.8,0.8-3.7-0.3-5.7c-0.2,0.5-0.4,0.7-0.4,1c-1.4,8.4-4,16.5-6.3,24.7c-2.2,8-5.3,15.7-8.5,23.4c-2.4,5.7-4.3,11.6-5,17.8
	c-0.5,4.6-0.5,9.1,0.4,13.7c0.1,0.6,0.2,1.2,0.3,2c-0.5,0.3-1,0.6-1.5,0.8c-5.1,2.4-10.4,4.2-16.2,4.5c-6,0.3-11.6-0.8-16.3-4.7
	c-2-1.6-3.6-3.8-5.4-5.6c-0.9-1-1-2-0.6-3.3c2-6.1,3.9-12.4,6.1-18.5c5.8-15.9,13.2-31.1,21-46.1c1.8-3.4,4.5-5.6,7.9-7
	c4.9-2,9.8-4,14.7-5.8c12.4-4.5,25.1-7.9,38.1-10.1c0.5-0.1,1-0.1,1.5-0.2c0.2,0,0.4,0.1,0.7,0.2c-0.5,1.6-0.9,3.1-1.4,4.7
	c-2.1,7.1-0.8,13.8,2.9,20.1c3.6,6.1,9.3,9.3,16.1,10.6c9.8,1.9,17.9-2.5,23.4-10.8c5.2-7.9,5-16,1.1-24.3c-0.9-1.9-1.8-3.8-2.8-5.8
	c1.2-0.1,2.1-0.3,3-0.3c14.1-1.1,28.3-1.3,42.5-0.8c7.5,0.2,14.9,0.7,22.4,1.1c7.1,0.4,14.2,1.1,21.3,1.5c4.1,0.2,8.2,0.1,12.3,0.1
	c4.6-0.1,9.1-0.4,13.7-0.4c5.4,0,10.5-1,15.4-3c14.5-5.9,27.6-14.1,39.5-24.2c3.7-3.2,7.8-5,12.7-5.7c11.3-1.7,22.5-3.7,33.8-5.7
	c12.7-2.2,25.4-4.3,38.1-6.5c0.5-0.1,1.1-0.1,1.7-0.2c1.4-0.3,2.4,0.1,3.5,0.9c6.2,4.9,12.5,9.7,18.6,14.6
	c15.8,12.7,30.7,26.3,44.9,40.8c12.6,12.9,24.7,26.3,35.8,40.5c0.5,0.7,1.1,1.3,1.6,2s0.8,1.6,1.3,2.5
	C603.7,320,602.1,320.9,600.1,321.9z M615.8,326.9c-0.3,0.6-0.8,1.3-1.3,1.4c-0.3,0.1-1.1-0.5-1.5-0.9c-2.5-3.2-5-6.4-7.4-9.8
	c-5.5-8-12-15.3-18.4-22.6c-9.1-10.5-18.7-20.5-28.6-30.2c-2.9-2.8-5.9-5.5-8.8-8.3c-0.7-0.6-1.2-1.5-2-2.7
	c4.1-0.9,7.6-1.7,11.1-2.4c15.3-3,30.7-5.4,46.1-6.9c10.5-1,21-1.7,31.6-2.5c0.4,0,0.8,0,1.3,0c2.5,0,3,0.7,2.3,3.1
	c-2,6.8-4.1,13.6-6.1,20.4c-5.9,19.5-11.7,39-17.6,58.4C616.3,325,616.2,326,615.8,326.9z"/>
</svg>
